<svg xmlns="http://www.w3.org/2000/svg" xmlns:xlink="http://www.w3.org/1999/xlink" version="1.1" id="Layer_1" x="0px" y="0px" width="100.0px" height="100px" viewBox="20.0 -40.0 400.0 540.0" enable-background="new 0 0 400 400" xml:space="preserve">
<path d="M367.231,2H32.769C15.813,2,2,15.812,2,32.768v334.463C2,384.188,15.813,398,32.769,398h170.063h78.594h85.806  C384.187,398,398,384.188,398,367.231V32.768C398,15.812,384.187,2,367.231,2z M223,378V232h-49v-36h49v-52.196  c0-20.625,5.889-37.43,17.189-48.599c10.857-10.731,26.823-16.403,45.866-16.403c13.383,0,24.944,0.657,33.944,1.3v31.688  l-20.463,0.009c-38.12,0-38.537,28.317-38.537,37.623V196h55.24l-4.737,36H261v146H223z M378,367.231  c0,5.928-4.842,10.769-10.769,10.769H281V252h48.089l9.896-76H281v-26.578c0-6.902,1.127-11.202,3.088-13.532  c2.286-2.715,7.726-4.091,15.561-4.091L340,131.781V62.277l-8.888-1.153c-4.536-0.603-22.661-2.322-45.201-2.322  c-24.418,0-45.051,7.669-59.731,22.179C210.994,95.991,203,117.715,203,143.804V176h-49v76h49v126H32.769  C26.841,378,22,373.159,22,367.231V32.768C22,26.84,26.841,22,32.769,22h334.462C373.158,22,378,26.84,378,32.768V367.231z"/>
<text x="0.0" y="470.0" font-size="20.0" font-weight="bold" font-family="Helvetica Neue, Helvetica, Arial-Unicode, Arial, Sans-serif" fill="#000000">Created by Niels Gesquiere</text><text x="0.0" y="490.0" font-size="20.0" font-weight="bold" font-family="Helvetica Neue, Helvetica, Arial-Unicode, Arial, Sans-serif" fill="#000000">from the Noun Project</text></svg>