<svg xmlns:x="http://ns.adobe.com/Extensibility/1.0/" xmlns:i="http://ns.adobe.com/AdobeIllustrator/10.0/" xmlns:graph="http://ns.adobe.com/Graphs/1.0/" xmlns="http://www.w3.org/2000/svg" xmlns:xlink="http://www.w3.org/1999/xlink" version="1.1" id="Your_Icon" x="0px" y="0px" width="100px" height="100px" viewBox="5.0 -10.0 100.0 135.0" enable-background="new 0 0 100 100" xml:space="preserve">
<metadata>
	<sfw xmlns="http://ns.adobe.com/SaveForWeb/1.0/">
		<slices/>
		<sliceSourceBounds height="59.528" width="68.327" bottomLeftOrigin="true" x="262.336" y="395.013"/>
	</sfw>
</metadata>
<g>
	<path d="M82.849,51.076c-0.163-0.523-0.394-1.027-0.703-1.484c-0.168-0.252-0.368-0.483-0.583-0.702   c0.05-0.044,0.103-0.083,0.15-0.129c0.274-0.261,0.507-0.573,0.694-0.921c0.279-0.524,0.458-1.119,0.574-1.805   c0.116-0.688,0.168-1.474,0.169-2.406c0-0.634-0.124-1.24-0.36-1.777c-0.205-0.471-0.491-0.887-0.822-1.238   c-0.581-0.617-1.286-1.047-2.02-1.367c-1.104-0.479-2.294-0.725-3.406-0.869c-1.111-0.141-2.145-0.172-2.905-0.172   c-1.146,0-1.873,0.026-2.561,0.051c-0.689,0.025-1.339,0.049-2.406,0.049c-0.046,0-0.092,0-0.137,0c-0.046,0-0.09,0-0.133,0   c-1.109,0-1.792,0.039-2.676,0.078c-0.716,0.031-1.586,0.063-2.987,0.08c0.009-0.189,0.026-0.393,0.054-0.596   c0.037-0.279,0.084-0.548,0.125-0.77v-0.001c0.288-1.628,0.851-3.589,1.296-5.274c0.262-1,0.401-2.215,0.403-3.553   c-0.002-1.791-0.257-3.793-0.909-5.686c-0.328-0.945-0.758-1.864-1.318-2.707c-0.56-0.843-1.254-1.611-2.101-2.229   c-0.646-0.467-1.454-0.86-2.363-1.17c-0.908-0.305-1.904-0.517-2.911-0.519c-0.469,0-0.941,0.049-1.41,0.169   c-0.35,0.091-0.7,0.226-1.031,0.417c-0.497,0.285-0.952,0.715-1.265,1.258c-0.317,0.541-0.491,1.176-0.531,1.855   c-0.022,0.35-0.03,0.697-0.03,1.041c0.003,1.758,0.214,3.471,0.211,5.037c0,0.566-0.027,1.113-0.094,1.633   c-0.04,0.326-0.167,0.709-0.362,1.132c-0.193,0.423-0.452,0.88-0.708,1.37c-0.229,0.436-0.693,1.275-1.28,2.297   c-0.881,1.531-2.048,3.487-3.16,5.199c-0.556,0.854-1.099,1.649-1.578,2.291c-0.24,0.321-0.463,0.604-0.659,0.833   c-0.195,0.228-0.366,0.403-0.476,0.501l0,0c-0.186,0.164-0.335,0.277-0.459,0.355c-0.189,0.115-0.313,0.167-0.523,0.214   c-0.207,0.046-0.511,0.072-0.959,0.072c-0.742,0.001-1.85-0.072-3.464-0.122c-0.742-0.022-1.361,0.561-1.383,1.301   c-0.003,0.105,0.008,0.209,0.028,0.307c-0.061,0.222-0.088,0.439-0.087,0.63c0.001,0.282,0.042,0.521,0.088,0.725   c0.07,0.307,0.151,0.548,0.2,0.737c0.052,0.187,0.068,0.312,0.066,0.352c0,1.295,0.025,2.586,0.077,3.877l0,0   c0.111,2.74,0.228,5.441,0.321,8.16v-0.002c0.001,0.028,0.001,0.07,0.001,0.121c0,0.308-0.024,0.916-0.063,1.664   c-0.059,1.126-0.147,2.593-0.222,4.054c-0.074,1.461-0.135,2.912-0.135,4.046c0,0.529,0.013,0.987,0.049,1.379   c0.02,0.199,0.042,0.381,0.091,0.582c0.025,0.104,0.056,0.211,0.115,0.349c0.03,0.069,0.069,0.146,0.125,0.233   c0.058,0.089,0.134,0.189,0.251,0.296c0.123,0.107,0.197,0.151,0.267,0.193c0.128,0.077,0.229,0.124,0.345,0.176   c0.213,0.097,0.464,0.195,0.766,0.31c1.047,0.396,2.698,0.961,4.326,1.538c0.812,0.287,1.616,0.578,2.324,0.845   c0.706,0.268,1.321,0.519,1.725,0.708c0.207,0.097,0.404,0.16,0.617,0.221c0.396,0.11,0.847,0.196,1.372,0.277   c0.916,0.139,2.052,0.254,3.342,0.352c3.867,0.288,9.113,0.419,13.296,0.419c1.747,0,3.306-0.022,4.506-0.068   c0.602-0.021,1.113-0.049,1.526-0.084c0.208-0.017,0.391-0.037,0.558-0.061c0.085-0.011,0.165-0.025,0.247-0.041   c0.063-0.014,0.13-0.03,0.203-0.05c0.013-0.002,0.059-0.01,0.129-0.015c0.145-0.014,0.371-0.027,0.639-0.046   c0.472-0.034,1.077-0.081,1.731-0.192c0.493-0.087,1.015-0.207,1.538-0.396c0.394-0.142,0.789-0.32,1.169-0.559   c0.568-0.354,1.11-0.85,1.497-1.511c0.388-0.657,0.601-1.462,0.597-2.336c0.004-1.26-0.31-2.336-0.844-3.171   c-0.186-0.291-0.396-0.547-0.617-0.776c0.175-0.062,0.35-0.13,0.524-0.209c0.713-0.323,1.419-0.812,1.966-1.53   c0.549-0.715,0.91-1.636,1.024-2.695c0.022-0.209,0.034-0.412,0.034-0.611c0.001-0.549-0.089-1.071-0.265-1.542   c-0.188-0.511-0.473-0.948-0.806-1.311c0.215-0.11,0.428-0.232,0.633-0.377c0.556-0.393,1.056-0.936,1.408-1.611   c0.354-0.678,0.56-1.472,0.611-2.364c0.011-0.179,0.016-0.355,0.016-0.53C83.163,52.516,83.065,51.775,82.849,51.076z    M72.172,75.056L72.172,75.056L72.172,75.056L72.172,75.056z M78.862,61.323c-0.044,0.388-0.13,0.689-0.235,0.931   c-0.19,0.422-0.438,0.687-0.786,0.921c-0.261,0.172-0.584,0.315-0.952,0.426c-0.551,0.167-1.197,0.255-1.832,0.306   c-0.638,0.054-1.249,0.068-1.814,0.133c-0.604,0.069-1.088,0.54-1.175,1.142c-0.087,0.604,0.244,1.19,0.805,1.429   c0.137,0.057,0.243,0.088,0.346,0.117c0.188,0.051,0.366,0.088,0.557,0.132c0.332,0.075,0.697,0.165,1.055,0.297   c0.268,0.097,0.526,0.217,0.758,0.362c0.347,0.218,0.624,0.479,0.835,0.846c0.209,0.366,0.368,0.862,0.371,1.639   c-0.001,0.35-0.058,0.601-0.138,0.796c-0.073,0.175-0.164,0.312-0.285,0.443c-0.21,0.228-0.53,0.433-0.945,0.596   c-0.621,0.247-1.424,0.375-2.129,0.438c-0.354,0.031-0.681,0.051-0.972,0.071c-0.146,0.01-0.281,0.02-0.421,0.036   c-0.069,0.01-0.14,0.019-0.218,0.033c-0.068,0.013-0.145,0.029-0.236,0.057l0,0h-0.001l0,0c-0.014,0.004-0.093,0.019-0.203,0.029   c-0.204,0.025-0.519,0.05-0.91,0.071c-1.178,0.066-3.043,0.101-5.197,0.101c-3.353,0-7.426-0.084-10.85-0.269   c-1.709-0.092-3.261-0.209-4.461-0.349c-0.6-0.068-1.113-0.145-1.5-0.221c-0.194-0.036-0.356-0.075-0.475-0.108   c-0.118-0.032-0.196-0.064-0.202-0.067c-0.651-0.305-1.521-0.645-2.498-1.005c-1.461-0.54-3.147-1.121-4.499-1.6   c-0.674-0.237-1.267-0.45-1.69-0.613c-0.045-0.018-0.087-0.034-0.128-0.051c-0.014-0.238-0.022-0.547-0.021-0.908   c0-1.39,0.103-3.458,0.208-5.346c0.052-0.946,0.105-1.852,0.145-2.615c0.04-0.767,0.066-1.38,0.067-1.803   c0-0.073-0.001-0.143-0.003-0.211h0c-0.093-2.735-0.21-5.44-0.321-8.176l0,0c-0.05-1.252-0.074-2.508-0.074-3.77   c-0.005-0.568-0.144-0.991-0.23-1.305c0-0.003-0.001-0.005-0.002-0.008c0.835,0.035,1.507,0.068,2.098,0.068   c0.362,0,0.698-0.012,1.03-0.051c0.495-0.057,0.988-0.182,1.445-0.404c0.458-0.22,0.857-0.516,1.246-0.859l0,0   c0.333-0.299,0.647-0.651,0.987-1.07c0.59-0.729,1.238-1.65,1.909-2.664c1.004-1.52,2.049-3.238,2.929-4.736   c0.879-1.501,1.587-2.77,1.926-3.417c0.228-0.437,0.512-0.933,0.77-1.493c0.257-0.561,0.494-1.193,0.587-1.914   c0.085-0.666,0.114-1.324,0.114-1.973c-0.003-1.788-0.214-3.504-0.211-5.037c0-0.299,0.008-0.592,0.026-0.875   c0.018-0.305,0.08-0.497,0.145-0.625c0.049-0.096,0.101-0.159,0.165-0.22c0.094-0.087,0.229-0.167,0.439-0.233   c0.208-0.062,0.486-0.102,0.808-0.102c0.612-0.002,1.368,0.145,2.053,0.378c0.682,0.228,1.305,0.548,1.64,0.796   c0.556,0.405,1.035,0.926,1.447,1.545c0.617,0.926,1.069,2.072,1.359,3.281s0.417,2.477,0.417,3.625   c0.002,1.141-0.128,2.17-0.313,2.869c-0.432,1.646-1.017,3.652-1.344,5.486l0,0c-0.04,0.223-0.096,0.535-0.143,0.887   c-0.047,0.354-0.086,0.746-0.086,1.159c0,0.292,0.019,0.593,0.083,0.913c0.066,0.318,0.177,0.667,0.43,1.02   c0.252,0.348,0.66,0.557,1.092,0.553c2.107-0.009,3.286-0.051,4.194-0.091c0.91-0.04,1.515-0.075,2.559-0.075   c0.042,0,0.082,0,0.122,0h0.003c0.05,0,0.097,0,0.145,0c1.107,0,1.815-0.025,2.503-0.051s1.356-0.048,2.464-0.049   c0.596,0,1.378,0.023,2.199,0.109c0.616,0.063,1.253,0.164,1.845,0.312c0.444,0.109,0.862,0.247,1.224,0.408   c0.547,0.241,0.953,0.533,1.192,0.828c0.121,0.15,0.207,0.3,0.27,0.469c0.061,0.17,0.099,0.363,0.099,0.611   c0.003,1.309-0.131,2.166-0.297,2.639c-0.061,0.179-0.123,0.303-0.18,0.389c-0.101,0.152-0.165,0.203-0.282,0.272   c-0.09,0.05-0.219,0.099-0.405,0.144c-0.279,0.065-0.68,0.109-1.169,0.151c-0.479,0.042-1.045,0.085-1.672,0.183l0,0l0,0   c-0.013,0.004-0.025,0.004-0.039,0.006c-0.725,0.115-1.222,0.792-1.117,1.518c0.104,0.727,0.773,1.235,1.501,1.14   c0.27-0.034,0.52-0.05,0.749-0.05c0.579,0,1.023,0.1,1.373,0.25c0.262,0.111,0.475,0.254,0.659,0.428   c0.274,0.258,0.492,0.595,0.647,1.028c0.157,0.431,0.245,0.958,0.244,1.548c0,0.121-0.004,0.245-0.011,0.372   c-0.042,0.693-0.204,1.126-0.399,1.43c-0.147,0.229-0.322,0.399-0.546,0.549c-0.334,0.222-0.797,0.386-1.344,0.481   c-0.544,0.097-1.156,0.125-1.752,0.125c-0.486,0-0.961-0.019-1.401-0.021c-0.71-0.006-1.299,0.54-1.349,1.247   c-0.05,0.708,0.458,1.331,1.16,1.426c0.18,0.023,0.357,0.039,0.565,0.061c0.359,0.035,0.792,0.084,1.229,0.174   c0.328,0.066,0.655,0.155,0.947,0.27c0.441,0.171,0.779,0.392,0.977,0.626c0.102,0.119,0.176,0.242,0.232,0.394   c0.055,0.154,0.094,0.344,0.095,0.603C78.881,61.104,78.875,61.21,78.862,61.323z"/>
	<path d="M31.511,37.764c-0.422,0.029-0.985,0.042-1.609,0.042c-1.405,0.001-3.114-0.057-4.497-0.058   c-0.413,0-0.798,0.006-1.146,0.02l0,0c-0.203,0.009-0.407,0.013-0.611,0.013c-1.036,0-2.105-0.103-3.215-0.211   c-1.111-0.106-2.262-0.222-3.461-0.222c-0.267,0-0.537,0.006-0.808,0.02c-0.003,0-0.007,0-0.01,0   c-0.016,0.001-0.03,0.001-0.046,0.002c-0.039,0.002-0.075,0.012-0.114,0.016c-0.035,0.006-0.069,0.006-0.104,0.014   c-0.008,0.002-0.015,0.005-0.022,0.007c-0.051,0.013-0.1,0.031-0.149,0.048c-0.035,0.014-0.072,0.023-0.105,0.039   c-0.043,0.021-0.082,0.046-0.123,0.07c-0.035,0.021-0.072,0.04-0.104,0.064c-0.035,0.025-0.065,0.055-0.098,0.083   c-0.032,0.03-0.066,0.056-0.095,0.089c-0.029,0.031-0.053,0.066-0.08,0.1c-0.025,0.035-0.054,0.066-0.076,0.104   c-0.023,0.037-0.04,0.077-0.06,0.115c-0.019,0.039-0.04,0.076-0.055,0.115c-0.015,0.04-0.023,0.082-0.035,0.121   c-0.012,0.044-0.026,0.088-0.034,0.133c-0.006,0.039-0.007,0.078-0.01,0.118c-0.004,0.05-0.009,0.099-0.007,0.149   c0,0.01-0.002,0.017-0.001,0.024c0.002,0.038,0.012,0.073,0.018,0.11c0.004,0.037,0.004,0.072,0.012,0.109   c0.011,0.048,0.043,0.219,0.083,0.439c0.14,0.785,0.389,2.316,0.614,3.724c0.112,0.704,0.218,1.38,0.303,1.921   c0.084,0.537,0.146,0.949,0.166,1.096v0.002c0.25,1.807,0.472,2.922,0.69,3.99c0.217,1.067,0.431,2.087,0.694,3.834   c1.06,7.029,2.015,11.141,3.24,15.947h0c0.23,0.904,0.487,2.001,0.684,2.869c0.1,0.434,0.184,0.809,0.244,1.075   c0.059,0.268,0.093,0.426,0.093,0.426c0.129,0.591,0.636,1.021,1.239,1.054c0.003,0,0.512,0.028,1.154,0.056   c0.645,0.027,1.414,0.057,1.977,0.057c0.151,0,0.287-0.002,0.415-0.008l0.002-0.002c0.77-0.034,1.689-0.082,2.543-0.211   l0.003-0.002c0.464-0.074,0.876-0.189,1.243-0.275c0.364-0.088,0.679-0.139,0.856-0.135c0.042,0,0.076,0.002,0.102,0.005   c0.442,0.052,0.876-0.115,1.169-0.451c0.292-0.334,0.4-0.788,0.289-1.219c-0.054-0.213-0.07-0.392-0.07-0.648   c-0.001-0.254,0.022-0.586,0.023-1.006c0-0.072,0-0.145-0.002-0.221v-0.004c-0.006-0.231-0.009-0.467-0.009-0.702   c0-1.1,0.058-2.243,0.058-3.432c0-0.421-0.008-0.848-0.028-1.28c-0.049-1.012-0.069-2.039-0.069-3.077   c-0.001-4.274,0.343-8.722,0.345-13.058c0.001-2.898,0.017-4.684,0.017-7.592c0-1.021,0.004-1.783,0.008-2.289   c0.002-0.254,0.005-0.443,0.006-0.568c0.001-0.126,0.002-0.186,0.002-0.186c0.006-0.374-0.147-0.739-0.418-0.998   C32.258,37.873,31.884,37.738,31.511,37.764z M28.595,72.611h0.003c-0.662,0.103-1.514,0.152-2.259,0.185h0.001   c-0.065,0.004-0.17,0.006-0.295,0.006c-0.477,0-1.237-0.026-1.861-0.054c-0.037-0.002-0.073-0.003-0.109-0.005   c-0.208-0.921-0.527-2.313-0.818-3.455l0,0c-1.216-4.778-2.137-8.733-3.187-15.684c-0.271-1.805-0.502-2.912-0.719-3.971   c-0.215-1.062-0.418-2.075-0.661-3.823l0,0c-0.03-0.217-0.106-0.717-0.21-1.383c-0.156-0.996-0.369-2.34-0.56-3.509   c-0.05-0.306-0.098-0.596-0.143-0.868c0.774,0.035,1.571,0.111,2.395,0.191c1.111,0.108,2.268,0.223,3.476,0.224   c0.239,0,0.48-0.005,0.723-0.016l0,0c0.292-0.013,0.645-0.017,1.034-0.017c1.313,0,3.026,0.058,4.497,0.058   c0.118,0,0.232-0.001,0.347-0.002c-0.002,0.452-0.004,1.011-0.004,1.681c0,2.896-0.016,4.682-0.018,7.59   c0.001,4.197-0.343,8.644-0.344,13.06c0,1.073,0.021,2.143,0.072,3.208c0.018,0.377,0.025,0.76,0.025,1.149   c0,1.099-0.058,2.243-0.058,3.432c0,0.256,0.003,0.515,0.01,0.774v-0.002c0.001,0.052,0.001,0.103,0.001,0.154   c0.001,0.241-0.014,0.492-0.02,0.779c-0.095,0.021-0.189,0.041-0.278,0.062C29.212,72.478,28.84,72.574,28.595,72.611z"/>
</g>
<text x="0.0" y="117.5" font-size="5.0" font-weight="bold" font-family="Helvetica Neue, Helvetica, Arial-Unicode, Arial, Sans-serif" fill="#000000">Created by Maria Maldonado</text><text x="0.0" y="122.5" font-size="5.0" font-weight="bold" font-family="Helvetica Neue, Helvetica, Arial-Unicode, Arial, Sans-serif" fill="#000000">from the Noun Project</text></svg>