<?xml version="1.0" encoding="utf-8"?>
<!-- Generator: Adobe Illustrator 16.0.0, SVG Export Plug-In . SVG Version: 6.00 Build 0)  -->
<!DOCTYPE svg PUBLIC "-//W3C//DTD SVG 1.1//EN" "http://www.w3.org/Graphics/SVG/1.1/DTD/svg11.dtd">
<svg version="1.1" id="图层_1" xmlns="http://www.w3.org/2000/svg" xmlns:xlink="http://www.w3.org/1999/xlink" x="0px" y="0px"
	 width="30px" height="90px" viewBox="0 0 30 90" enable-background="new 0 0 30 90" xml:space="preserve">
<symbol  id="home" viewBox="-12.153 -10.868 24.305 21.736">
	<path d="M11.814-0.392l-10.8,10.854c-0.54,0.54-1.458,0.54-2.052,0l-10.8-10.854c-0.54-0.594-0.378-1.026,0.432-1.026h2.268v-8.37
		c0-0.594,0.054-1.08,1.134-1.08h5.238v8.37h5.508v-8.37H8.25c0.864,0,0.864,0.486,0.864,1.08v8.37h2.269
		C12.192-1.417,12.408-0.985,11.814-0.392z"/>
</symbol>
<symbol  id="note" viewBox="-11.284 -11.293 22.569 22.586">
	<path d="M5.182,9.241C2.42,6.476-4.322-0.281-4.322-0.281c-0.066-0.068-0.115-0.15-0.14-0.243c-0.229-0.849-1.38-4.618-1.391-4.656
		c-0.059-0.193-0.006-0.403,0.136-0.544C-5.614-5.826-5.479-5.88-5.339-5.88c0.055,0,0.11,0.009,0.164,0.025
		C-5.136-5.842-1.25-4.585-0.61-4.393c0.084,0.024,0.161,0.07,0.224,0.132c0.335,0.331,7.029,6.965,9.67,9.598L5.182,9.241z"/>
	<g id="note_2_">
		<path d="M9.992,6.044c0.155,0.155,0.279,0.281,0.329,0.332c0.652,0.673,0.976,1.373,0.963,2.081
			c-0.012,0.7-0.352,1.374-1.006,2.002c-0.577,0.554-1.214,0.833-1.893,0.833c-1.063,0-1.838-0.687-2.049-0.897
			c-0.033-0.033-0.196-0.195-0.447-0.447L9.992,6.044z"/>
		<path d="M0.473-6.06C0.168-6.357-0.197-6.571-0.592-6.688C-1.208-6.872-4.81-7.932-4.94-7.974C-5.224-8.062-5.476-8.1-5.729-8.1
			c-0.679,0-1.223,0.203-1.702,0.684c-0.663,0.653-0.909,1.631-0.63,2.541c0.741,2.433,1.246,4.122,1.373,4.592
			c0.109,0.413,0.332,0.804,0.641,1.12c0.01,0.01,7.874,7.87,7.874,7.87H-9.963c-0.825,0-1.321-0.577-1.321-1.404V-9.71
			c0-0.828,0.497-1.583,1.321-1.583H6.181c0.825,0,1.494,0.713,1.494,1.541L7.693,1.041C4.667-1.965,0.736-5.799,0.473-6.06z"/>
	</g>
</symbol>
<symbol  id="shop" viewBox="-11.025 -11.026 22.051 22.051">
	<path d="M-7.35-8.576c0-1.372,1.127-2.45,2.45-2.45c1.372,0,2.45,1.078,2.45,2.45c0,1.323-1.078,2.45-2.45,2.45
		C-6.223-6.125-7.35-7.252-7.35-8.576z M4.9-8.576c0-1.372,1.127-2.45,2.45-2.45c1.372,0,2.45,1.078,2.45,2.45
		c0,1.323-1.078,2.45-2.45,2.45C6.027-6.125,4.9-7.252,4.9-8.576z M-2.989-2.793l13.574,3.872c0.245,0.049,0.441,0.343,0.441,0.637
		v6.713H-6.223v2.107c0,0.245-0.245,0.49-0.49,0.49h-3.822c-0.245,0-0.49-0.245-0.49-0.49v-1.96h2.401l2.401-11.124l0.245-1.127
		v-1.862c0-0.245,0.196-0.49,0.49-0.49H-4.9H7.351h3.185c0.294,0,0.49,0.245,0.49,0.49v1.862h-13.77
		C-4.165-3.675-4.165-3.136-2.989-2.793z"/>
</symbol>
<use xlink:href="#home"  width="24.305" height="21.736" x="-12.153" y="-10.868" transform="matrix(1 0 0 -1 14.4253 13.9233)" overflow="visible"/>
<use xlink:href="#shop"  width="22.051" height="22.051" x="-11.025" y="-11.026" transform="matrix(1 0 0 -1 14.9756 44.876)" overflow="visible"/>
<use xlink:href="#note"  width="22.569" height="22.586" x="-11.284" y="-11.293" transform="matrix(1 0 0 -1 17.2959 73.7061)" overflow="visible"/>
</svg>
