<?xml version="1.0" encoding="utf-8"?>
<!-- Generator: Adobe Illustrator 16.0.0, SVG Export Plug-In . SVG Version: 6.00 Build 0)  -->
<!DOCTYPE svg PUBLIC "-//W3C//DTD SVG 1.1//EN" "http://www.w3.org/Graphics/SVG/1.1/DTD/svg11.dtd">
<svg version="1.1" id="图层_1" xmlns="http://www.w3.org/2000/svg" xmlns:xlink="http://www.w3.org/1999/xlink" x="0px" y="0px"
	 width="30px" height="90px" viewBox="0 0 30 90" enable-background="new 0 0 30 90" xml:space="preserve">
<symbol  id="facebook" viewBox="-12.441 -12.44 24.881 24.88">
	<path fill="#040000" d="M0,12.44c-6.871,0-12.441-5.571-12.441-12.44c0-6.871,5.57-12.44,12.441-12.44
		c6.87,0,12.44,5.569,12.44,12.44C12.44,6.869,6.87,12.44,0,12.44z M3.292,0.052H1.138c0-3.442,0-7.683,0-7.683h-3.193
		c0,0,0,4.197,0,7.683h-1.519v2.712h1.519v1.758c0,1.258,0.597,3.222,3.223,3.222l2.364-0.009V5.1c0,0-1.438,0-1.717,0
		S1.139,4.96,1.139,4.362V2.764h2.434L3.292,0.052z"/>
</symbol>
<symbol  id="instagram" viewBox="-12.374 -12.374 24.748 24.748">
	<g>
		<polygon fill="#040000" points="5.108,2.708 5.108,4.692 5.108,4.988 4.811,4.987 2.828,4.98 2.835,2.701 		"/>
		<path fill="#040000" d="M-0.062-2.556c1.306,0,2.369,1.062,2.369,2.366c0,0.517-0.168,0.993-0.449,1.382
			c-0.43,0.597-1.13,0.987-1.92,0.987S-1.55,1.789-1.981,1.192c-0.281-0.389-0.448-0.865-0.448-1.382
			C-2.429-1.494-1.367-2.556-0.062-2.556z"/>
		<path fill="#040000" d="M0,12.374c-6.835,0-12.375-5.54-12.375-12.373c0-6.835,5.54-12.375,12.375-12.375
			c6.833,0,12.374,5.54,12.374,12.375C12.374,6.834,6.834,12.374,0,12.374z M6.666,1.192v-5.507c0-1.435-1.168-2.601-2.602-2.601
			h-8.253c-1.433,0-2.6,1.166-2.6,2.601v5.507v2.746c0,1.434,1.167,2.599,2.6,2.599h8.253c1.434,0,2.602-1.165,2.602-2.599V1.192z"
			/>
		<path fill="#040000" d="M3.617-0.189c0-2.026-1.65-3.678-3.679-3.678c-2.029,0-3.677,1.651-3.677,3.678
			c0,0.489,0.097,0.955,0.27,1.382h-2.008v-5.507c0-0.712,0.578-1.29,1.288-1.29h8.253c0.711,0,1.289,0.578,1.289,1.29v5.507H3.345
			C3.519,0.766,3.617,0.3,3.617-0.189z"/>
	</g>
</symbol>
<symbol  id="twiiter" viewBox="-12.624 -12.624 25.248 25.248">
	<path fill="#040000" d="M0,12.624c-6.973,0-12.625-5.653-12.625-12.625S-6.972-12.624,0-12.624c6.972,0,12.624,5.651,12.624,12.623
		S6.973,12.624,0,12.624z M6.609,0.42c0.007-0.137,0.01-0.274,0.01-0.412c0-4.205-3.2-9.052-9.052-9.052
		c-1.796,0-3.469,0.526-4.877,1.43c0.249-0.029,0.501-0.045,0.758-0.045c1.491,0,2.863,0.51,3.952,1.362
		c-1.392,0.025-2.566,0.945-2.972,2.21c0.194-0.038,0.393-0.057,0.598-0.057c0.291,0,0.571,0.038,0.838,0.111
		c-1.456,0.291-2.552,1.579-2.552,3.119c0,0.013,0,0.027,0,0.041c0.429-0.238,0.919-0.381,1.441-0.398
		C-6.1-0.699-6.662,0.273-6.662,1.377c0,0.583,0.157,1.13,0.431,1.6c1.569-1.924,3.914-3.191,6.558-3.324
		C0.273-0.115,0.245,0.129,0.245,0.378c0,1.757,1.424,3.181,3.181,3.181c0.916,0,1.742-0.386,2.322-1.004
		C6.473,2.697,7.154,2.962,7.77,3.328c-0.239-0.744-0.742-1.368-1.4-1.76c0.645,0.076,1.258,0.248,1.828,0.5
		C7.771,1.428,7.231,0.868,6.609,0.42z"/>
</symbol>
<use xlink:href="#facebook"  width="24.881" height="24.88" x="-12.441" y="-12.44" transform="matrix(1 0 0 -1 15.0576 14.1719)" overflow="visible"/>
<use xlink:href="#twiiter"  width="25.248" height="25.248" x="-12.624" y="-12.624" transform="matrix(1 0 0 -1 14.9727 43.1563)" overflow="visible"/>
<use xlink:href="#instagram"  width="24.748" height="24.748" x="-12.374" y="-12.374" transform="matrix(1 0 0 -1 15.249 73.6572)" overflow="visible"/>
</svg>
