<?xml version="1.0" ?><!DOCTYPE svg  PUBLIC '-//W3C//DTD SVG 1.1//EN'  'http://www.w3.org/Graphics/SVG/1.1/DTD/svg11.dtd'><svg enable-background="new 0 0 56.693 56.693" height="56.693px" id="Layer_1" version="1.1" viewBox="0 0 56.693 56.693" width="56.693px" xml:space="preserve" xmlns="http://www.w3.org/2000/svg" xmlns:xlink="http://www.w3.org/1999/xlink"><path d="M28.347,5.157c-13.6,0-24.625,11.027-24.625,24.625c0,13.6,11.025,24.623,24.625,24.623c13.6,0,24.625-11.023,24.625-24.623  C52.972,16.184,41.946,5.157,28.347,5.157z M34.864,29.679h-4.264c0,6.814,0,15.207,0,15.207h-6.32c0,0,0-8.307,0-15.207h-3.006  V24.31h3.006v-3.479c0-2.49,1.182-6.377,6.379-6.377l4.68,0.018v5.215c0,0-2.846,0-3.398,0c-0.555,0-1.34,0.277-1.34,1.461v3.163  h4.818L34.864,29.679z"/></svg>