<?xml version="1.0" ?><!DOCTYPE svg  PUBLIC '-//W3C//DTD SVG 1.1//EN'  'http://www.w3.org/Graphics/SVG/1.1/DTD/svg11.dtd'><svg enable-background="new 0 0 56.693 56.693" height="56.693px" id="Layer_1" version="1.1" viewBox="0 0 56.693 56.693" width="56.693px" xml:space="preserve" xmlns="http://www.w3.org/2000/svg" xmlns:xlink="http://www.w3.org/1999/xlink"><g><polygon points="38.512,24.392 38.512,20.445 38.512,19.855 37.922,19.857 33.975,19.871 33.99,24.407  "/><path d="M28.225,34.868c2.598,0,4.713-2.113,4.713-4.711c0-1.025-0.334-1.975-0.893-2.748c-0.855-1.186-2.248-1.965-3.82-1.965   s-2.963,0.779-3.82,1.965c-0.559,0.773-0.891,1.723-0.891,2.748C23.514,32.755,25.627,34.868,28.225,34.868z"/><path d="M28.348,5.158c-13.6,0-24.625,11.023-24.625,24.623c0,13.6,11.025,24.625,24.625,24.625   c13.598,0,24.623-11.025,24.623-24.625C52.971,16.181,41.945,5.158,28.348,5.158z M41.611,27.409V38.37   c0,2.852-2.322,5.172-5.174,5.172H20.012c-2.853,0-5.173-2.32-5.173-5.172V27.409v-5.464c0-2.853,2.32-5.173,5.173-5.173h16.425   c2.852,0,5.174,2.32,5.174,5.173V27.409z"/><path d="M35.545,30.157c0,4.035-3.283,7.32-7.32,7.32s-7.318-3.285-7.318-7.32c0-0.973,0.193-1.898,0.537-2.748h-3.996V38.37   c0,1.414,1.15,2.564,2.564,2.564h16.425c1.414,0,2.564-1.15,2.564-2.564V27.409h-3.998C35.35,28.259,35.545,29.185,35.545,30.157z"/></g></svg>