<?xml version="1.0" ?><svg height="100" viewBox="0 0 100 100" width="100" xmlns="http://www.w3.org/2000/svg" xmlns:xlink="http://www.w3.org/1999/xlink"><path d="M50 0c-27.614 0-50 22.385-50 50 0 27.613 22.386 50 50 50s50-22.387 50-50c0-27.615-22.386-50-50-50z" fill="#55ACEE"/><defs><path d="M50 0c-27.614 0-50 22.385-50 50 0 27.613 22.386 50 50 50s50-22.387 50-50c0-27.615-22.386-50-50-50z" id="a"/></defs><clipPath id="b"><use overflow="visible" xlink:href="#a"/></clipPath><g clip-path="url(#b)"><path d="M3 10.999h30c2.209 0 4 1.791 4 4v22c0 2.209-1.791 4-4 4h-13.984c-.56 0-2.493.262-3.023.792-1.499 1.2-1.393 1.519-3.496 3.203.05-.04-2.498 2.305-2.498-.015.005-2.37-.009-3.979-.009-3.979h-6.99c-2.209 0-4-1.791-4-4v-22c0-2.21 1.791-4.001 4-4.001z" fill="#4C9AD6"/><path d="M96 20.999h-30c-2.209 0-4 1.791-4 4v22c0 2.209 1.791 4 4 4h13.984c.56 0 2.492.262 3.022.792 1.499 1.2 1.394 1.519 3.497 3.203-.051-.041 2.498 2.305 2.498-.016-.006-2.37.008-3.979.008-3.979h6.991c2.209 0 4-1.791 4-4v-22c0-2.21-1.791-4-4-4z" fill="#B8D9F2"/><path d="M28 29.999h44c2.209 0 4 1.79 4 4v34c0 2.209-1.791 3.999-4 3.999h-22.984c-.56 0-2.492.263-3.022.793l-6.497 5.203c.051-.04-2.498 2.305-2.498-.016.006-2.369-.008-5.98-.008-5.98h-8.991c-2.209 0-4-1.79-4-3.999v-34c0-2.21 1.791-4 4-4z" fill="#fff"/><path d="M65.004 42.598c-1.066.442-2.214.74-3.418.875 1.229-.688 2.172-1.775 2.617-3.073-1.15.637-2.424 1.099-3.779 1.349-1.086-1.08-2.633-1.754-4.344-1.754-3.287 0-5.951 2.486-5.951 5.553 0 .436.053.859.154 1.266-4.947-.232-9.332-2.442-12.268-5.803-.512.821-.806 1.774-.806 2.793 0 1.926 1.051 3.626 2.647 4.622-.975-.029-1.893-.278-2.695-.695v.07c0 2.69 2.051 4.935 4.773 5.445-.499.127-1.025.196-1.568.196-.383 0-.756-.035-1.119-.102.758 2.207 2.955 3.812 5.559 3.857-2.037 1.489-4.603 2.378-7.391 2.378-.48 0-.954-.027-1.42-.078 2.635 1.575 5.762 2.495 9.123 2.495 10.947 0 16.933-8.463 16.933-15.801 0-.24-.005-.481-.017-.718 1.163-.783 2.173-1.761 2.97-2.875z" fill="#55ACEE"/><g fill="#4C9AD6"><path d="M72 71.998h-22.984c-.56 0-2.492.263-3.022.793l-1.239.992c.542-.524 2.455-.785 3.011-.785h22.984c1.235 0 2.326-.571 3.06-1.451-.546.279-1.155.451-1.81.451zM36.998 77.979c.006-2.369-.008-5.98-.008-5.98h-8.99c-2.209 0-4-1.79-4-3.999v-34c0-.974.362-1.854.94-2.548-1.295.662-2.19 1.994-2.19 3.548v34c0 2.209 1.791 3.999 4 3.999h8.99s.014 3.611.008 5.98c0 2.32 2.549-.024 2.498.016l.685-.548c-.738.522-1.933 1.12-1.933-.468z"/></g><path d="M24 40.999v-7c0-.974.362-1.854.94-2.548-1.295.662-2.19 1.994-2.19 3.548v6h1.25z" fill="#448AC0"/></g></svg>