<?xml version="1.0" encoding="utf-8"?>
<!-- Generator: Adobe Illustrator 18.0.0, SVG Export Plug-In . SVG Version: 6.00 Build 0)  -->
<!DOCTYPE svg PUBLIC "-//W3C//DTD SVG 1.1//EN" "http://www.w3.org/Graphics/SVG/1.1/DTD/svg11.dtd">
<svg version="1.1" id="图层_1" xmlns="http://www.w3.org/2000/svg" xmlns:xlink="http://www.w3.org/1999/xlink" x="0px" y="0px"
	 viewBox="0 0 30 90" enable-background="new 0 0 30 90" xml:space="preserve">
<path d="M15.1,2.4C8.3,2.4,2.8,7.9,2.8,14.8c0,6.8,5.5,12.4,12.4,12.4s12.4-5.5,12.4-12.4C27.5,7.9,22,2.4,15.1,2.4z M18.4,14.7
	h-2.1c0,3.4,0,7.6,0,7.6h-3.2c0,0,0-4.2,0-7.6h-1.5V12h1.5v-1.7c0-1.3,0.6-3.2,3.2-3.2l2.4,0v2.6c0,0-1.4,0-1.7,0
	c-0.3,0-0.7,0.1-0.7,0.7V12h2.4L18.4,14.7z M15,32.7c-6.1,0-11.1,5-11.1,11.1C3.9,50,8.9,55,15,55s11.1-5,11.1-11.1
	C26.1,37.7,21.1,32.7,15,32.7z M20.6,41.6c0,0.1,0,0.2,0,0.4c0,3.7-2.8,8-8,8c-1.6,0-3.1-0.5-4.3-1.3c0.2,0,0.4,0,0.7,0
	c1.3,0,2.5-0.4,3.5-1.2c-1.2,0-2.3-0.8-2.6-1.9c0.2,0,0.3,0.1,0.5,0.1c0.3,0,0.5,0,0.7-0.1c-1.3-0.3-2.2-1.4-2.2-2.7c0,0,0,0,0,0
	c0.4,0.2,0.8,0.3,1.3,0.4c-0.8-0.5-1.2-1.4-1.2-2.3c0-0.5,0.1-1,0.4-1.4c1.4,1.7,3.4,2.8,5.8,2.9c0-0.2-0.1-0.4-0.1-0.6
	c0-1.5,1.3-2.8,2.8-2.8c0.8,0,1.5,0.3,2,0.9c0.6-0.1,1.2-0.4,1.8-0.7c-0.2,0.7-0.7,1.2-1.2,1.6c0.6-0.1,1.1-0.2,1.6-0.4
	C21.6,40.7,21.2,41.2,20.6,41.6z"/>
<g>
	<polygon points="19.7,72.8 19.7,71 19.7,70.7 19.4,70.7 17.6,70.7 17.6,72.8 	"/>
	<path d="M14.9,77.7c1.2,0,2.2-1,2.2-2.2c0-0.5-0.2-0.9-0.4-1.3c-0.4-0.6-1-0.9-1.8-0.9c-0.7,0-1.4,0.4-1.8,0.9
		c-0.3,0.4-0.4,0.8-0.4,1.3C12.8,76.7,13.7,77.7,14.9,77.7z"/>
	<path d="M15,63.9C8.7,63.9,3.6,69,3.6,75.3c0,6.3,5.1,11.4,11.4,11.4c6.3,0,11.4-5.1,11.4-11.4C26.4,69,21.3,63.9,15,63.9z
		 M21.2,74.2v5.1c0,1.3-1.1,2.4-2.4,2.4h-7.6c-1.3,0-2.4-1.1-2.4-2.4v-5.1v-2.5c0-1.3,1.1-2.4,2.4-2.4h7.6c1.3,0,2.4,1.1,2.4,2.4
		C21.2,71.7,21.2,74.2,21.2,74.2z"/>
	<path d="M18.3,75.5c0,1.9-1.5,3.4-3.4,3.4s-3.4-1.5-3.4-3.4c0-0.5,0.1-0.9,0.2-1.3H9.9v5.1c0,0.7,0.5,1.2,1.2,1.2h7.6
		c0.7,0,1.2-0.5,1.2-1.2v-5.1h-1.9C18.3,74.6,18.3,75,18.3,75.5z"/>
</g>
</svg>
