<?xml version="1.0" encoding="utf-8"?>
<!-- Generator: Adobe Illustrator 16.0.0, SVG Export Plug-In . SVG Version: 6.00 Build 0)  -->
<!DOCTYPE svg PUBLIC "-//W3C//DTD SVG 1.1//EN" "http://www.w3.org/Graphics/SVG/1.1/DTD/svg11.dtd">
<svg version="1.1" id="图层_1" xmlns="http://www.w3.org/2000/svg" xmlns:xlink="http://www.w3.org/1999/xlink" x="0px" y="0px"
	 width="30px" height="90px" viewBox="0 0 30 90" enable-background="new 0 0 30 90" xml:space="preserve">
<symbol  id="facebook" viewBox="-13 -13 26 25.999">
	<path fill-rule="evenodd" clip-rule="evenodd" d="M0,13c-7.18,0-13-5.822-13-13C-13-7.18-7.18-13,0-13C7.18-13,13-7.18,13,0
		C13,7.178,7.179,13,0,13z M3.44,0H1c0-4,0-8,0-8h-3c0,0,0,4,0,8h-2v3h2v1.725c0,1.314,0.705,3.366,3.448,3.366L4,8.082V5
		c0,0-1.812,0-2.103,0C1.604,5,1,5.183,1,4.558V3h2.733L3.44,0z"/>
	<polygon display="none" fill="none" points="-13,12 13,12 13,-12 -13,-12 	"/>
</symbol>
<symbol  id="instagram" viewBox="-12.5 -12.5 24.999 24.999">
	<path fill-rule="evenodd" clip-rule="evenodd" d="M0-12.5c-6.904,0-12.5,5.597-12.5,12.5S-6.903,12.5,0,12.5
		C6.902,12.5,12.5,6.904,12.5,0S6.903-12.5,0-12.5z M6.733,1.205v2.773c0,1.449-1.179,2.626-2.626,2.626h-8.337
		c-1.448,0-2.626-1.177-2.626-2.626V1.205v-5.564c0-1.448,1.178-2.625,2.626-2.625h8.337c1.448,0,2.626,1.177,2.626,2.625V1.205z
		 M4.106-5.661h-8.337c-0.718,0-1.302,0.584-1.302,1.302v5.564h2.028C-3.679,0.773-3.777,0.303-3.777-0.19
		c0-2.048,1.666-3.716,3.715-3.716S3.653-2.239,3.653-0.19c0,0.493-0.099,0.964-0.275,1.395h2.029v-5.564
		C5.408-5.077,4.824-5.661,4.106-5.661z M2.857,5.031L4.86,5.038l0.3,0.001V4.74V2.736L2.864,2.729L2.857,5.031z M-0.062-3.056
		c-1.319,0-2.391,1.153-2.391,2.569c0,0.559,0.168,1.077,0.452,1.499c0.435,0.646,1.141,1.072,1.939,1.072s1.505-0.425,1.939-1.072
		c0.284-0.422,0.454-0.939,0.454-1.499C2.331-1.903,1.257-3.056-0.062-3.056z"/>
</symbol>
<symbol  id="twitter" viewBox="-7.984 -6.489 15.968 12.978">
	<path fill-rule="evenodd" clip-rule="evenodd" d="M6.349,3.256c0.007-0.14,0.01-0.282,0.01-0.424c0-4.33-3.295-9.321-9.321-9.321
		c-1.85,0-3.572,0.542-5.022,1.472c0.256-0.03,0.517-0.045,0.781-0.045c1.536,0,2.948,0.524,4.069,1.402
		c-1.433,0.026-2.643,0.974-3.06,2.275c0.199-0.039,0.404-0.058,0.616-0.058c0.299,0,0.588,0.039,0.863,0.114
		c-1.5,0.301-2.628,1.626-2.628,3.212c0,0.014,0,0.028,0,0.042c0.441-0.246,0.947-0.393,1.484-0.411
		c-0.879,0.589-1.458,1.59-1.458,2.728c0,0.6,0.162,1.164,0.443,1.647c1.616-1.982,4.03-3.287,6.753-3.423
		c-0.056,0.239-0.085,0.49-0.085,0.747c0,1.809,1.467,3.276,3.276,3.276c0.942,0,1.793-0.398,2.391-1.034
		C6.209,5.602,6.91,5.875,7.543,6.25C7.297,5.484,6.779,4.843,6.102,4.438c0.664,0.079,1.295,0.255,1.882,0.516
		C7.546,4.295,6.99,3.718,6.349,3.256z"/>
</symbol>
<use xlink:href="#facebook"  width="26" height="25.999" x="-13" y="-13" transform="matrix(1 0 0 -1 15 14)" overflow="visible"/>
<use xlink:href="#twitter"  width="15.968" height="12.978" x="-7.984" y="-6.489" transform="matrix(1 0 0 -1 16.1992 45.6357)" overflow="visible"/>
<use xlink:href="#instagram"  width="24.999" height="24.999" x="-12.5" y="-12.5" transform="matrix(1 0 0 -1 13.5 75.5)" overflow="visible"/>
</svg>
