<?xml version="1.0" encoding="utf-8"?>
<!-- Generator: Adobe Illustrator 18.0.0, SVG Export Plug-In . SVG Version: 6.00 Build 0)  -->
<!DOCTYPE svg PUBLIC "-//W3C//DTD SVG 1.1//EN" "http://www.w3.org/Graphics/SVG/1.1/DTD/svg11.dtd">
<svg version="1.1" id="图层_1" xmlns="http://www.w3.org/2000/svg" xmlns:xlink="http://www.w3.org/1999/xlink" x="0px" y="0px"
	 viewBox="0 0 30 90" enable-background="new 0 0 30 90" xml:space="preserve" width="30px" height="90px">
<path d="M23.2,4.8H5.4c-0.9,0-1.6,0.7-1.6,1.6v17.8c0,0.9,0.7,1.6,1.6,1.6h9.1h4.2h4.6c0.9,0,1.6-0.7,1.6-1.6V6.4
	C24.8,5.5,24.1,4.8,23.2,4.8z M15.5,24.8V17h-2.6v-1.9h2.6v-2.8c0-1.1,0.3-2,0.9-2.6c0.6-0.6,1.4-0.9,2.4-0.9c0.7,0,1.3,0,1.8,0.1
	v1.7l-1.1,0c-2,0-2.1,1.5-2.1,2v2.5h2.9L20.2,17h-2.7v7.8H15.5z M23.8,24.2c0,0.3-0.3,0.6-0.6,0.6h-4.6v-6.7h2.6l0.5-4h-3.1v-1.4
	c0-0.4,0.1-0.6,0.2-0.7c0.1-0.1,0.4-0.2,0.8-0.2l2.1,0V8l-0.5-0.1c-0.2,0-1.2-0.1-2.4-0.1c-1.3,0-2.4,0.4-3.2,1.2
	c-0.8,0.8-1.2,2-1.2,3.3V14h-2.6v4h2.6v6.7H5.4c-0.3,0-0.6-0.3-0.6-0.6V6.4c0-0.3,0.3-0.6,0.6-0.6h17.8c0.3,0,0.6,0.3,0.6,0.6V24.2z
	"/>
<path d="M15.8,41.3l2.4-2.4v-1.1c-1.5-0.8-3.2-1.3-5-1.3c-1.3,0-2.6,0.3-3.8,0.8c0.4,0,0.7,0.1,1.1,0c0.2,0,0.6-0.1,0.8,0
	c0.2,0.1,0.3,0.4,0.5,0.4c0.6,0.3,1.3,0.2,1.9,0.2c0.1,0,0.5-0.1,0.7,0c0.1,0.1,0.2,0.4,0.2,0.4c0.2,0.1,0.7-0.1,0.9,0.1
	c0.2,0.1,0.3,0.6,0.2,0.9c-0.1,0.5-0.9,0.9-1.2,1.3c-0.1,0.2-0.2,0.1-0.3,0.4c0,0.1,0,0.3,0,0.4c0,0,0.1,0,0.1,0
	c-0.1,0.3,0.2,0.3,0.2,0.6c0.4,0.2,0.4-0.3,0.8-0.1c0.2,0.1,0.3,0.6,0.4,0.8c0.1,0.7-0.8,1.1-0.7,1.8c0.1,0.4,0.4,0.4,0.4,0.8
	c0,0.3,0,0.7-0.3,0.9c-0.3,0.2-0.6,0-0.6-0.3c0-0.1,0.1-0.3,0-0.5c0-0.1-0.2-0.2-0.2-0.4c-0.8-0.1-0.7,1.1-0.7,1.6
	c-0.1,0.5-0.2,0.6-0.5,1c-0.2,0.2-0.5,0.6-0.6,0.9c-0.4,0-1.2,0-1.2-0.5c0-0.1,0.2-0.3,0.2-0.5c0.1-0.3,0-0.4-0.1-0.7
	c-0.1-0.3-0.3-0.5-0.5-0.7c-0.3-0.2-0.4-0.1-0.8-0.3c-0.6-0.3-1.7-1.3-1.9-2c-0.1-0.3,0-0.8,0-1.1c0-0.2-0.1-0.5-0.1-0.7
	c-0.5,0-0.5-0.3-0.6-0.7c-0.1-0.4-0.1-0.6-0.3-0.9c-0.2-0.3-0.3-0.5-0.5-0.7c-0.2-0.2-0.1-0.5-0.3-0.7c0-0.1-0.1-0.1-0.2-0.1
	c-2.1,1.8-3.4,4.5-3.4,7.5c0,4.9,3.6,9,8.3,9.9c-0.3-0.7-0.2-1.7-0.2-2.5c-0.6,0.1-0.4-0.5-0.6-0.9c-0.2-0.4-0.3-0.5-0.3-1
	c-0.1-0.6-0.2-0.9,0.5-1.1c0-0.3,0.4-0.3,0.6-0.4l-0.2,0c0.3,0,0.2-0.2,0.4-0.3c0.2-0.1,0.5-0.2,0.8-0.3c0.4-0.2,0.5-0.3,1.1-0.2
	c0.8,0.2,1.2,0.8,1.7,1.4c0.3,0.4,0.5,0.6,1,0.8c0.3,0.1,0.7,0.2,0.9,0.5c0.1,0.3-0.1,1-0.2,1.2c-0.1,0.2-0.3,0.1-0.4,0.3
	c-0.1,0.2-0.2,0.4-0.4,0.5c-0.6,0.7-1.4,1.1-1.6,2.1c4.9-0.6,8.8-4.8,8.8-9.9c0-1.9-0.6-3.7-1.5-5.3L15.8,41.3L15.8,41.3z"/>
<path d="M26,32.9h-5c-0.7,0-1.2,0.6-1.2,1.2v4.5L18,40.4h3h0.5h0.6H26c0.7,0,1.2-0.6,1.2-1.2v-5C27.3,33.5,26.7,32.9,26,32.9z
	 M23.9,38.7c-0.1,0.1-0.2,0.1-0.4,0.1c-0.1,0-0.3,0-0.4-0.1c-0.1-0.1-0.2-0.2-0.2-0.4c0-0.1,0-0.3,0.1-0.4c0.1-0.1,0.2-0.1,0.4-0.1
	c0.1,0,0.3,0,0.4,0.1c0.1,0.1,0.2,0.2,0.2,0.4C24,38.5,24,38.6,23.9,38.7z M24,35l-0.1,1.7c0,0.2-0.1,0.4-0.1,0.5
	c-0.1,0.1-0.1,0.2-0.3,0.2c-0.1,0-0.2-0.1-0.3-0.2c0-0.1-0.1-0.3-0.1-0.5L23,35c0-0.3,0-0.5,0-0.7c0-0.2,0-0.3,0.1-0.4
	c0.1-0.1,0.2-0.2,0.4-0.2c0.2,0,0.3,0.1,0.4,0.2c0.1,0.1,0.1,0.3,0.1,0.6C24,34.7,24,34.8,24,35z"/>
<g>
	<path d="M25.7,75c-0.1-0.2-0.1-0.3-0.2-0.5c-0.1-0.1-0.1-0.2-0.2-0.2c0,0,0,0,0,0c0.1-0.1,0.2-0.2,0.2-0.3c0.1-0.2,0.1-0.4,0.2-0.6
		c0-0.2,0.1-0.5,0.1-0.8c0-0.2,0-0.4-0.1-0.6c-0.1-0.2-0.2-0.3-0.3-0.4c-0.2-0.2-0.4-0.3-0.6-0.4C24.4,71,24,71,23.7,70.9
		c-0.4,0-0.7-0.1-0.9-0.1c-0.4,0-0.6,0-0.8,0c-0.2,0-0.4,0-0.8,0c0,0,0,0,0,0c0,0,0,0,0,0c-0.4,0-0.6,0-0.9,0c-0.2,0-0.5,0-1,0
		c0-0.1,0-0.1,0-0.2c0-0.1,0-0.2,0-0.2v0c0.1-0.5,0.3-1.1,0.4-1.7c0.1-0.3,0.1-0.7,0.1-1.1c0-0.6-0.1-1.2-0.3-1.8
		c-0.1-0.3-0.2-0.6-0.4-0.9c-0.2-0.3-0.4-0.5-0.7-0.7c-0.2-0.1-0.5-0.3-0.8-0.4c-0.3-0.1-0.6-0.2-0.9-0.2c-0.2,0-0.3,0-0.5,0.1
		c-0.1,0-0.2,0.1-0.3,0.1c-0.2,0.1-0.3,0.2-0.4,0.4c-0.1,0.2-0.2,0.4-0.2,0.6c0,0.1,0,0.2,0,0.3c0,0.6,0.1,1.1,0.1,1.6
		c0,0.2,0,0.4,0,0.5c0,0.1-0.1,0.2-0.1,0.4c-0.1,0.1-0.1,0.3-0.2,0.4c-0.1,0.1-0.2,0.4-0.4,0.7c-0.3,0.5-0.7,1.1-1,1.7
		c-0.2,0.3-0.4,0.5-0.5,0.7c-0.1,0.1-0.1,0.2-0.2,0.3c-0.1,0.1-0.1,0.1-0.2,0.2l0,0c-0.1,0.1-0.1,0.1-0.1,0.1
		c-0.1,0-0.1,0.1-0.2,0.1c-0.1,0-0.2,0-0.3,0c-0.2,0-0.6,0-1.1,0c-0.2,0-0.4,0.2-0.4,0.4c0,0,0,0.1,0,0.1c0,0.1,0,0.1,0,0.2
		c0,0.1,0,0.2,0,0.2c0,0.1,0,0.2,0.1,0.2c0,0.1,0,0.1,0,0.1c0,0.4,0,0.8,0,1.2l0,0c0,0.9,0.1,1.7,0.1,2.6v0c0,0,0,0,0,0
		c0,0.1,0,0.3,0,0.5c0,0.4,0,0.8-0.1,1.3c0,0.5,0,0.9,0,1.3c0,0.2,0,0.3,0,0.4c0,0.1,0,0.1,0,0.2c0,0,0,0.1,0,0.1c0,0,0,0,0,0.1
		c0,0,0,0.1,0.1,0.1c0,0,0.1,0,0.1,0.1c0,0,0.1,0,0.1,0.1c0.1,0,0.1,0.1,0.2,0.1c0.3,0.1,0.9,0.3,1.4,0.5c0.3,0.1,0.5,0.2,0.7,0.3
		c0.2,0.1,0.4,0.2,0.6,0.2c0.1,0,0.1,0.1,0.2,0.1c0.1,0,0.3,0.1,0.4,0.1c0.3,0,0.7,0.1,1.1,0.1c1.2,0.1,2.9,0.1,4.3,0.1
		c0.6,0,1.1,0,1.4,0c0.2,0,0.4,0,0.5,0c0.1,0,0.1,0,0.2,0c0,0,0.1,0,0.1,0c0,0,0,0,0.1,0c0,0,0,0,0,0c0,0,0.1,0,0.2,0
		c0.2,0,0.3,0,0.6-0.1c0.2,0,0.3-0.1,0.5-0.1c0.1,0,0.3-0.1,0.4-0.2c0.2-0.1,0.4-0.3,0.5-0.5c0.1-0.2,0.2-0.5,0.2-0.7
		c0-0.4-0.1-0.7-0.3-1c-0.1-0.1-0.1-0.2-0.2-0.2c0.1,0,0.1,0,0.2-0.1c0.2-0.1,0.5-0.3,0.6-0.5c0.2-0.2,0.3-0.5,0.3-0.9
		c0-0.1,0-0.1,0-0.2c0-0.2,0-0.3-0.1-0.5c-0.1-0.2-0.2-0.3-0.3-0.4c0.1,0,0.1-0.1,0.2-0.1c0.2-0.1,0.3-0.3,0.5-0.5
		c0.1-0.2,0.2-0.5,0.2-0.8c0-0.1,0-0.1,0-0.2C25.8,75.5,25.8,75.2,25.7,75z M22.3,82.7L22.3,82.7L22.3,82.7L22.3,82.7z M24.4,78.3
		c0,0.1,0,0.2-0.1,0.3c-0.1,0.1-0.1,0.2-0.3,0.3C24,78.9,23.9,79,23.8,79c-0.2,0.1-0.4,0.1-0.6,0.1c-0.2,0-0.4,0-0.6,0
		c-0.2,0-0.3,0.2-0.4,0.4c0,0.2,0.1,0.4,0.3,0.5c0,0,0.1,0,0.1,0c0.1,0,0.1,0,0.2,0c0.1,0,0.2,0.1,0.3,0.1c0.1,0,0.2,0.1,0.2,0.1
		c0.1,0.1,0.2,0.2,0.3,0.3c0.1,0.1,0.1,0.3,0.1,0.5c0,0.1,0,0.2,0,0.3c0,0.1-0.1,0.1-0.1,0.1c-0.1,0.1-0.2,0.1-0.3,0.2
		c-0.2,0.1-0.5,0.1-0.7,0.1c-0.1,0-0.2,0-0.3,0c0,0-0.1,0-0.1,0c0,0,0,0-0.1,0c0,0,0,0-0.1,0l0,0h0l0,0c0,0,0,0-0.1,0
		c-0.1,0-0.2,0-0.3,0c-0.4,0-1,0-1.7,0c-1.1,0-2.4,0-3.5-0.1c-0.5,0-1-0.1-1.4-0.1c-0.2,0-0.4,0-0.5-0.1c-0.1,0-0.1,0-0.2,0
		c0,0-0.1,0-0.1,0c-0.2-0.1-0.5-0.2-0.8-0.3c-0.5-0.2-1-0.4-1.4-0.5c-0.2-0.1-0.4-0.1-0.5-0.2c0,0,0,0,0,0c0-0.1,0-0.2,0-0.3
		c0-0.4,0-1.1,0.1-1.7c0-0.3,0-0.6,0-0.8c0-0.2,0-0.4,0-0.6c0,0,0,0,0-0.1l0,0c0-0.9-0.1-1.7-0.1-2.6l0,0c0-0.4,0-0.8,0-1.2
		c0-0.2,0-0.3-0.1-0.4c0,0,0,0,0,0c0.3,0,0.5,0,0.7,0c0.1,0,0.2,0,0.3,0c0.2,0,0.3-0.1,0.5-0.1c0.1-0.1,0.3-0.2,0.4-0.3l0,0
		c0.1-0.1,0.2-0.2,0.3-0.3c0.2-0.2,0.4-0.5,0.6-0.9c0.3-0.5,0.7-1,0.9-1.5c0.3-0.5,0.5-0.9,0.6-1.1c0.1-0.1,0.2-0.3,0.2-0.5
		c0.1-0.2,0.2-0.4,0.2-0.6c0-0.2,0-0.4,0-0.6c0-0.6-0.1-1.1-0.1-1.6c0-0.1,0-0.2,0-0.3c0-0.1,0-0.2,0-0.2c0,0,0-0.1,0.1-0.1
		c0,0,0.1-0.1,0.1-0.1c0.1,0,0.2,0,0.3,0c0.2,0,0.4,0,0.7,0.1c0.2,0.1,0.4,0.2,0.5,0.3c0.2,0.1,0.3,0.3,0.5,0.5
		c0.2,0.3,0.3,0.7,0.4,1.1c0.1,0.4,0.1,0.8,0.1,1.2c0,0.4,0,0.7-0.1,0.9c-0.1,0.5-0.3,1.2-0.4,1.8l0,0c0,0.1,0,0.2,0,0.3
		c0,0.1,0,0.2,0,0.4c0,0.1,0,0.2,0,0.3c0,0.1,0.1,0.2,0.1,0.3c0.1,0.1,0.2,0.2,0.3,0.2c0.7,0,1.1,0,1.3,0c0.3,0,0.5,0,0.8,0
		c0,0,0,0,0,0h0c0,0,0,0,0,0c0.4,0,0.6,0,0.8,0c0.2,0,0.4,0,0.8,0c0.2,0,0.4,0,0.7,0c0.2,0,0.4,0.1,0.6,0.1c0.1,0,0.3,0.1,0.4,0.1
		c0.2,0.1,0.3,0.2,0.4,0.3c0,0,0.1,0.1,0.1,0.2c0,0.1,0,0.1,0,0.2c0,0.4,0,0.7-0.1,0.8c0,0.1,0,0.1-0.1,0.1c0,0-0.1,0.1-0.1,0.1
		c0,0-0.1,0-0.1,0c-0.1,0-0.2,0-0.4,0c-0.2,0-0.3,0-0.5,0.1l0,0l0,0c0,0,0,0,0,0c-0.2,0-0.4,0.3-0.4,0.5c0,0.2,0.2,0.4,0.5,0.4
		c0.1,0,0.2,0,0.2,0c0.2,0,0.3,0,0.4,0.1c0.1,0,0.2,0.1,0.2,0.1c0.1,0.1,0.2,0.2,0.2,0.3c0.1,0.1,0.1,0.3,0.1,0.5c0,0,0,0.1,0,0.1
		c0,0.2-0.1,0.4-0.1,0.5c0,0.1-0.1,0.1-0.2,0.2c-0.1,0.1-0.3,0.1-0.4,0.2c-0.2,0-0.4,0-0.6,0c-0.2,0-0.3,0-0.4,0
		c-0.2,0-0.4,0.2-0.4,0.4c0,0.2,0.1,0.4,0.4,0.5c0.1,0,0.1,0,0.2,0c0.1,0,0.3,0,0.4,0.1c0.1,0,0.2,0,0.3,0.1
		c0.1,0.1,0.2,0.1,0.3,0.2c0,0,0.1,0.1,0.1,0.1C24.4,78,24.4,78.1,24.4,78.3C24.4,78.2,24.4,78.2,24.4,78.3z"/>
	<path d="M9.3,70.7c-0.1,0-0.3,0-0.5,0c-0.4,0-1,0-1.4,0c-0.1,0-0.3,0-0.4,0l0,0c-0.1,0-0.1,0-0.2,0c-0.3,0-0.7,0-1-0.1
		c-0.4,0-0.7-0.1-1.1-0.1c-0.1,0-0.2,0-0.3,0c0,0,0,0,0,0c0,0,0,0,0,0c0,0,0,0,0,0c0,0,0,0,0,0c0,0,0,0,0,0c0,0,0,0,0,0c0,0,0,0,0,0
		c0,0,0,0,0,0c0,0,0,0,0,0c0,0,0,0,0,0c0,0,0,0,0,0c0,0,0,0,0,0c0,0,0,0,0,0c0,0,0,0,0,0c0,0,0,0,0,0c0,0,0,0,0,0c0,0,0,0,0,0
		c0,0,0,0,0,0c0,0,0,0,0,0c0,0,0,0,0,0c0,0,0,0,0,0c0,0,0,0,0,0c0,0,0,0.1,0,0.1c0,0.3,0.1,0.7,0.2,1.2c0,0.2,0.1,0.4,0.1,0.6
		c0,0.2,0,0.3,0.1,0.4v0c0.1,0.6,0.2,0.9,0.2,1.3c0.1,0.3,0.1,0.7,0.2,1.2c0.3,2.3,0.6,3.6,1,5.1l0,0C5.9,81.3,5.9,81.7,6,82
		c0,0.1,0.1,0.3,0.1,0.3c0,0.1,0,0.1,0,0.1c0,0.2,0.2,0.3,0.4,0.3c0,0,0.2,0,0.4,0c0.2,0,0.5,0,0.6,0c0,0,0.1,0,0.1,0l0,0
		c0.2,0,0.5,0,0.8-0.1l0,0c0.1,0,0.3-0.1,0.4-0.1c0.1,0,0.2,0,0.3,0c0,0,0,0,0,0c0.1,0,0.3,0,0.4-0.1c0.1-0.1,0.1-0.3,0.1-0.4
		c0-0.1,0-0.1,0-0.2c0-0.1,0-0.2,0-0.3c0,0,0,0,0-0.1v0c0-0.1,0-0.1,0-0.2c0-0.4,0-0.7,0-1.1c0-0.1,0-0.3,0-0.4c0-0.3,0-0.7,0-1
		c0-1.4,0.1-2.8,0.1-4.2c0-0.9,0-1.5,0-2.4c0-0.3,0-0.6,0-0.7c0-0.1,0-0.1,0-0.2c0,0,0-0.1,0-0.1c0-0.1,0-0.2-0.1-0.3
		C9.5,70.8,9.4,70.7,9.3,70.7z M8.3,81.9L8.3,81.9c-0.2,0-0.5,0-0.7,0.1h0c0,0-0.1,0-0.1,0c-0.2,0-0.4,0-0.6,0c0,0,0,0,0,0
		c-0.1-0.3-0.2-0.7-0.3-1.1l0,0c-0.4-1.5-0.7-2.8-1-5c-0.1-0.6-0.2-0.9-0.2-1.3c-0.1-0.3-0.1-0.7-0.2-1.2l0,0c0-0.1,0-0.2-0.1-0.4
		c0-0.3-0.1-0.7-0.2-1.1c0-0.1,0-0.2,0-0.3c0.2,0,0.5,0,0.8,0.1c0.4,0,0.7,0.1,1.1,0.1c0.1,0,0.2,0,0.2,0l0,0c0.1,0,0.2,0,0.3,0
		c0.4,0,1,0,1.4,0c0,0,0.1,0,0.1,0c0,0.1,0,0.3,0,0.5c0,0.9,0,1.5,0,2.4c0,1.3-0.1,2.8-0.1,4.2c0,0.3,0,0.7,0,1c0,0.1,0,0.2,0,0.4
		c0,0.4,0,0.7,0,1.1c0,0.1,0,0.2,0,0.2v0c0,0,0,0,0,0c0,0.1,0,0.2,0,0.2c0,0-0.1,0-0.1,0C8.5,81.8,8.4,81.9,8.3,81.9z"/>
</g>
</svg>
