<?xml version="1.0" encoding="utf-8"?>
<!-- Generator: Adobe Illustrator 16.0.0, SVG Export Plug-In . SVG Version: 6.00 Build 0)  -->
<!DOCTYPE svg PUBLIC "-//W3C//DTD SVG 1.1//EN" "http://www.w3.org/Graphics/SVG/1.1/DTD/svg11.dtd">
<svg version="1.1" id="图层_1" xmlns="http://www.w3.org/2000/svg" xmlns:xlink="http://www.w3.org/1999/xlink" x="0px" y="0px"
	 width="30px" height="90px" viewBox="0 0 30 90" enable-background="new 0 0 30 90" xml:space="preserve">
<path d="M25.138,2.997H4.862c-1.028,0-1.865,0.837-1.865,1.865v20.276c0,1.028,0.837,1.865,1.865,1.865h10.31h4.765h5.202
	c1.028,0,1.865-0.837,1.865-1.865V4.862C27.003,3.834,26.166,2.997,25.138,2.997z M16.395,25.791V16.94h-2.971v-2.183h2.971v-3.164
	c0-1.25,0.357-2.269,1.042-2.946c0.659-0.65,1.626-0.994,2.781-0.994c0.812,0,1.512,0.04,2.058,0.079v1.921l-1.241,0
	c-2.311,0-2.336,1.717-2.336,2.281v2.824h3.349L21.76,16.94h-3.062v8.851H16.395z M25.791,25.138c0,0.359-0.293,0.653-0.653,0.653
	h-5.228v-7.639h2.915l0.6-4.607h-3.515v-1.611c0-0.418,0.068-0.679,0.187-0.82c0.139-0.165,0.468-0.248,0.943-0.248l2.446-0.001
	V6.651l-0.539-0.07c-0.275-0.036-1.374-0.14-2.74-0.14c-1.48,0-2.731,0.464-3.621,1.344c-0.92,0.91-1.405,2.227-1.405,3.809v1.952
	h-2.971v4.607h2.971v7.639H4.862c-0.359,0-0.653-0.293-0.653-0.653V4.862c0-0.359,0.293-0.653,0.653-0.653h20.276
	c0.359,0,0.653,0.293,0.653,0.653V25.138z"/>
<path d="M16.171,40.583l2.654-2.712v-1.24c-1.645-0.963-3.541-1.528-5.574-1.528c-1.509,0-2.947,0.309-4.262,0.859
	c0.427,0.011,0.8,0.072,1.262,0.048c0.253-0.013,0.694-0.071,0.934,0.014c0.21,0.074,0.39,0.41,0.599,0.514
	c0.662,0.331,1.416,0.274,2.129,0.238c0.156-0.008,0.61-0.109,0.758-0.025c0.132,0.075,0.227,0.496,0.202,0.486
	c0.27,0.105,0.802-0.08,1.027,0.07c0.25,0.165,0.287,0.743,0.21,0.997c-0.166,0.54-0.979,1.057-1.316,1.504
	c-0.158,0.209-0.23,0.168-0.299,0.435c-0.037,0.146-0.013,0.332-0.045,0.474c0.019,0.016,0.12,0.023,0.145,0.03
	c-0.112,0.303,0.241,0.4,0.275,0.717c0.431,0.237,0.457-0.388,0.897-0.113c0.219,0.137,0.385,0.713,0.405,0.966
	c0.061,0.8-0.893,1.291-0.786,2.1c0.056,0.427,0.41,0.414,0.471,0.909c0.038,0.309-0.028,0.834-0.303,1.018
	c-0.335,0.225-0.624-0.028-0.692-0.322c-0.027-0.114,0.075-0.364,0.042-0.524c-0.03-0.14-0.182-0.255-0.208-0.431
	c-0.902-0.09-0.757,1.295-0.832,1.862c-0.069,0.523-0.223,0.719-0.535,1.102c-0.188,0.231-0.598,0.661-0.624,0.98
	c-0.467,0.024-1.318,0.031-1.343-0.569c-0.005-0.123,0.228-0.384,0.261-0.545c0.067-0.311,0.009-0.469-0.104-0.749
	c-0.129-0.319-0.28-0.585-0.526-0.804c-0.298-0.266-0.5-0.162-0.854-0.32c-0.704-0.314-1.928-1.5-2.144-2.25
	c-0.11-0.382,0.042-0.889,0.001-1.288c-0.027-0.278-0.124-0.518-0.112-0.794c-0.566-0.006-0.611-0.313-0.673-0.81
	c-0.063-0.497-0.115-0.638-0.356-1.071c-0.174-0.314-0.363-0.554-0.56-0.841c-0.169-0.247-0.136-0.585-0.31-0.822
	c-0.047-0.063-0.108-0.115-0.175-0.162c-2.335,2.107-3.816,5.18-3.816,8.613c0,5.667,4.019,10.366,9.301,11.313
	c-0.386-0.841-0.215-1.903-0.268-2.889c-0.647,0.163-0.463-0.61-0.673-0.984c-0.251-0.448-0.29-0.541-0.353-1.115
	c-0.081-0.744-0.204-1.065,0.608-1.237c0.041-0.359,0.417-0.34,0.688-0.419l-0.209-0.053c0.319,0.012,0.219-0.203,0.431-0.322
	c0.259-0.145,0.612-0.208,0.892-0.359c0.439-0.238,0.614-0.331,1.194-0.177c0.875,0.229,1.371,0.879,1.948,1.594
	c0.35,0.431,0.56,0.68,1.088,0.874c0.298,0.109,0.809,0.191,0.986,0.543c0.159,0.316-0.108,1.099-0.251,1.327
	c-0.117,0.184-0.298,0.155-0.449,0.32c-0.164,0.181-0.273,0.402-0.431,0.604c-0.669,0.854-1.552,1.286-1.829,2.378
	c5.543-0.715,9.833-5.538,9.833-11.396c0-2.209-0.622-4.264-1.678-6.016L16.171,40.583L16.171,40.583z"/>
<path d="M27.603,31.005h-5.619c-0.77,0-1.399,0.643-1.399,1.428v5.185l-1.941,1.984h3.34h0.545h0.646h4.427
	c0.771,0,1.399-0.644,1.399-1.429v-5.74C29.002,31.648,28.374,31.005,27.603,31.005z M25.222,37.655
	c-0.114,0.104-0.247,0.156-0.399,0.156c-0.154,0-0.288-0.052-0.405-0.153c-0.114-0.103-0.172-0.245-0.172-0.429
	c0-0.16,0.056-0.296,0.165-0.408c0.111-0.113,0.245-0.168,0.403-0.168c0.16,0,0.297,0.056,0.407,0.168
	c0.115,0.112,0.171,0.248,0.171,0.408C25.394,37.411,25.336,37.552,25.222,37.655z M25.367,33.358l-0.164,1.911
	c-0.019,0.227-0.056,0.401-0.113,0.522c-0.059,0.121-0.155,0.183-0.289,0.183c-0.136,0-0.232-0.059-0.285-0.177
	c-0.053-0.117-0.09-0.296-0.113-0.536l-0.121-1.856c-0.023-0.361-0.035-0.621-0.035-0.779c0-0.214,0.056-0.381,0.165-0.501
	c0.111-0.12,0.255-0.18,0.434-0.18c0.219,0,0.362,0.077,0.436,0.231c0.074,0.153,0.111,0.375,0.111,0.664
	C25.394,33.01,25.384,33.183,25.367,33.358z"/>
<path d="M25.892,76.797c-0.055-0.176-0.133-0.345-0.237-0.499c-0.056-0.084-0.124-0.162-0.196-0.236
	c0.017-0.015,0.035-0.028,0.051-0.043c0.092-0.088,0.171-0.192,0.233-0.31c0.094-0.176,0.154-0.375,0.193-0.606
	c0.039-0.231,0.057-0.495,0.057-0.808c0-0.213-0.042-0.417-0.121-0.597c-0.069-0.158-0.165-0.298-0.276-0.416
	c-0.196-0.208-0.433-0.352-0.68-0.459c-0.372-0.161-0.772-0.244-1.146-0.292c-0.374-0.047-0.722-0.058-0.978-0.058
	c-0.385,0-0.63,0.009-0.861,0.017s-0.451,0.017-0.81,0.017c-0.016,0-0.031,0-0.046,0c-0.016,0-0.03,0-0.045,0
	c-0.373,0-0.603,0.013-0.9,0.026c-0.241,0.011-0.533,0.021-1.005,0.027c0.003-0.063,0.009-0.132,0.019-0.2
	c0.012-0.094,0.028-0.184,0.042-0.259v0c0.097-0.546,0.287-1.205,0.437-1.771c0.088-0.336,0.135-0.744,0.136-1.193
	c0-0.602-0.087-1.273-0.306-1.909c-0.11-0.317-0.255-0.626-0.443-0.909c-0.188-0.283-0.422-0.541-0.707-0.749
	c-0.218-0.157-0.489-0.289-0.795-0.393c-0.306-0.102-0.641-0.173-0.979-0.174c-0.158,0-0.317,0.016-0.475,0.057
	c-0.118,0.031-0.235,0.076-0.347,0.14c-0.167,0.096-0.32,0.24-0.425,0.422c-0.107,0.182-0.166,0.395-0.179,0.623
	c-0.007,0.118-0.01,0.234-0.01,0.35c0.001,0.59,0.072,1.166,0.071,1.691c0,0.19-0.009,0.374-0.032,0.548
	c-0.014,0.11-0.056,0.238-0.122,0.38c-0.065,0.142-0.152,0.296-0.238,0.46c-0.077,0.146-0.233,0.428-0.431,0.771
	c-0.297,0.514-0.689,1.171-1.063,1.746c-0.187,0.287-0.37,0.554-0.531,0.769c-0.081,0.108-0.156,0.203-0.222,0.28
	c-0.065,0.077-0.123,0.135-0.16,0.168l0,0c-0.063,0.055-0.113,0.093-0.154,0.119c-0.064,0.039-0.105,0.056-0.176,0.072
	c-0.069,0.016-0.172,0.024-0.323,0.024c-0.25,0-0.623-0.024-1.166-0.041c-0.25-0.007-0.458,0.188-0.465,0.437
	c-0.001,0.035,0.002,0.07,0.009,0.103c-0.021,0.075-0.03,0.147-0.029,0.211c0,0.095,0.014,0.175,0.03,0.244
	c0.023,0.103,0.051,0.184,0.067,0.248c0.018,0.063,0.023,0.104,0.022,0.118c0,0.435,0.008,0.868,0.026,1.302l0,0
	c0.037,0.919,0.077,1.827,0.108,2.74v-0.001c0,0.009,0,0.023,0,0.041c0,0.104-0.008,0.308-0.021,0.559
	c-0.02,0.378-0.049,0.87-0.075,1.361c-0.025,0.491-0.045,0.978-0.045,1.358c0,0.178,0.004,0.332,0.017,0.463
	c0.007,0.066,0.014,0.127,0.031,0.195c0.008,0.035,0.019,0.071,0.039,0.117c0.01,0.023,0.023,0.049,0.042,0.078
	c0.02,0.03,0.045,0.064,0.084,0.1c0.042,0.036,0.066,0.051,0.09,0.065c0.043,0.026,0.077,0.042,0.116,0.059
	c0.072,0.033,0.156,0.065,0.258,0.104c0.353,0.133,0.908,0.323,1.456,0.517c0.273,0.096,0.543,0.194,0.782,0.283
	c0.238,0.09,0.445,0.175,0.581,0.238c0.07,0.032,0.136,0.053,0.208,0.074c0.133,0.037,0.285,0.066,0.462,0.093
	c0.309,0.046,0.691,0.085,1.125,0.118c1.301,0.097,3.066,0.141,4.474,0.141c0.588,0,1.113-0.007,1.517-0.023
	c0.203-0.007,0.375-0.016,0.514-0.028c0.07-0.005,0.131-0.012,0.188-0.021c0.028-0.003,0.055-0.008,0.083-0.014
	c0.021-0.005,0.043-0.01,0.068-0.016c0.005-0.001,0.02-0.004,0.044-0.005c0.049-0.004,0.125-0.009,0.215-0.016
	c0.159-0.011,0.362-0.027,0.582-0.064c0.166-0.029,0.342-0.07,0.518-0.133c0.133-0.047,0.266-0.107,0.394-0.188
	c0.191-0.119,0.374-0.285,0.504-0.507c0.13-0.221,0.202-0.491,0.201-0.785c0.001-0.423-0.104-0.784-0.284-1.064
	c-0.063-0.098-0.133-0.184-0.208-0.261c0.059-0.021,0.118-0.043,0.177-0.07c0.239-0.108,0.477-0.272,0.661-0.514
	c0.185-0.24,0.306-0.549,0.345-0.905c0.007-0.07,0.012-0.138,0.012-0.205c0-0.184-0.03-0.359-0.09-0.518
	c-0.063-0.172-0.159-0.318-0.271-0.44c0.072-0.037,0.144-0.078,0.213-0.127c0.188-0.132,0.355-0.314,0.474-0.541
	c0.119-0.228,0.188-0.495,0.206-0.794c0.004-0.06,0.005-0.119,0.005-0.178C25.998,77.281,25.965,77.032,25.892,76.797z
	 M22.299,84.848L22.299,84.848L22.299,84.848L22.299,84.848z M24.55,80.238c-0.015,0.13-0.044,0.231-0.079,0.313
	c-0.064,0.142-0.147,0.23-0.265,0.309c-0.088,0.058-0.197,0.106-0.321,0.143c-0.186,0.056-0.403,0.085-0.616,0.103
	c-0.215,0.019-0.42,0.023-0.61,0.044c-0.204,0.023-0.367,0.182-0.396,0.384c-0.029,0.203,0.083,0.399,0.271,0.48
	c0.046,0.019,0.082,0.029,0.117,0.039c0.063,0.017,0.123,0.03,0.188,0.044c0.112,0.025,0.234,0.055,0.355,0.1
	c0.09,0.033,0.177,0.073,0.255,0.122c0.117,0.073,0.21,0.161,0.281,0.284c0.071,0.123,0.125,0.289,0.125,0.55
	c0,0.117-0.02,0.202-0.046,0.267c-0.024,0.059-0.055,0.104-0.096,0.149c-0.071,0.076-0.178,0.145-0.318,0.2
	c-0.209,0.083-0.479,0.126-0.716,0.147c-0.12,0.011-0.229,0.018-0.328,0.024c-0.049,0.003-0.094,0.007-0.142,0.012
	c-0.023,0.003-0.047,0.006-0.073,0.011c-0.023,0.004-0.049,0.01-0.08,0.019l0,0l0,0l0,0c-0.005,0.001-0.032,0.006-0.068,0.01
	c-0.069,0.008-0.175,0.017-0.306,0.024c-0.396,0.022-1.024,0.034-1.749,0.034c-1.129,0-2.5-0.028-3.651-0.09
	c-0.576-0.031-1.098-0.07-1.501-0.117c-0.202-0.023-0.375-0.048-0.505-0.074c-0.065-0.012-0.12-0.025-0.16-0.036
	s-0.066-0.021-0.068-0.022c-0.219-0.103-0.512-0.217-0.84-0.337c-0.492-0.181-1.059-0.376-1.514-0.537
	c-0.227-0.08-0.426-0.151-0.569-0.206c-0.015-0.006-0.029-0.011-0.043-0.017c-0.005-0.08-0.007-0.184-0.007-0.305
	c0-0.467,0.035-1.161,0.07-1.795c0.018-0.318,0.035-0.622,0.049-0.878c0.013-0.258,0.022-0.463,0.022-0.605
	c0-0.024,0-0.048-0.001-0.071l0,0c-0.031-0.918-0.071-1.827-0.108-2.745l0,0c-0.017-0.42-0.025-0.842-0.025-1.266
	c-0.002-0.191-0.049-0.333-0.078-0.438c0-0.001,0-0.001,0-0.002c0.281,0.012,0.507,0.023,0.706,0.023
	c0.122,0,0.235-0.004,0.347-0.017c0.167-0.019,0.333-0.062,0.486-0.136s0.288-0.173,0.419-0.289l0,0
	c0.112-0.101,0.218-0.219,0.333-0.359c0.198-0.245,0.417-0.554,0.643-0.895c0.337-0.51,0.689-1.087,0.985-1.59
	c0.296-0.504,0.534-0.93,0.648-1.147c0.077-0.146,0.172-0.313,0.259-0.501c0.086-0.188,0.166-0.4,0.197-0.643
	c0.029-0.224,0.039-0.445,0.039-0.663c-0.001-0.6-0.072-1.176-0.071-1.691c0-0.101,0.003-0.199,0.009-0.294
	c0.006-0.103,0.027-0.167,0.049-0.209c0.016-0.033,0.034-0.054,0.055-0.074c0.032-0.029,0.077-0.056,0.148-0.078
	c0.07-0.021,0.164-0.034,0.272-0.034c0.206-0.001,0.46,0.049,0.691,0.126c0.229,0.077,0.439,0.184,0.552,0.268
	c0.187,0.136,0.348,0.311,0.486,0.519c0.208,0.311,0.36,0.696,0.458,1.102c0.098,0.406,0.14,0.831,0.14,1.217
	c0.001,0.383-0.043,0.729-0.105,0.963c-0.146,0.553-0.342,1.227-0.452,1.842l0,0c-0.014,0.075-0.033,0.18-0.048,0.297
	c-0.016,0.119-0.029,0.251-0.029,0.39c0,0.098,0.006,0.199,0.027,0.307c0.023,0.106,0.06,0.224,0.145,0.342
	c0.085,0.117,0.223,0.187,0.368,0.186c0.709-0.003,1.106-0.017,1.411-0.03c0.306-0.014,0.51-0.025,0.862-0.025
	c0.014,0,0.027,0,0.041,0h0.001c0.017,0,0.033,0,0.049,0c0.373,0,0.611-0.008,0.843-0.017c0.231-0.009,0.457-0.016,0.829-0.016
	c0.201,0,0.463,0.007,0.74,0.036c0.208,0.021,0.422,0.055,0.621,0.105c0.149,0.037,0.29,0.083,0.412,0.137
	c0.184,0.081,0.32,0.179,0.401,0.278c0.041,0.051,0.07,0.101,0.091,0.158c0.021,0.057,0.034,0.122,0.034,0.205
	c0,0.44-0.044,0.728-0.101,0.886c-0.021,0.06-0.041,0.102-0.06,0.13c-0.034,0.051-0.056,0.068-0.095,0.091
	c-0.03,0.017-0.074,0.033-0.136,0.048c-0.094,0.022-0.229,0.037-0.394,0.051c-0.161,0.014-0.351,0.028-0.563,0.062l0,0l0,0
	c-0.004,0.001-0.008,0.001-0.013,0.002c-0.244,0.039-0.411,0.266-0.376,0.51c0.035,0.244,0.261,0.415,0.505,0.383
	c0.09-0.011,0.175-0.017,0.252-0.017c0.195,0,0.344,0.033,0.462,0.083c0.088,0.037,0.16,0.085,0.222,0.144
	c0.092,0.086,0.165,0.2,0.218,0.345c0.053,0.145,0.083,0.321,0.082,0.52c0,0.041-0.001,0.082-0.004,0.125
	c-0.014,0.233-0.068,0.378-0.134,0.48c-0.05,0.077-0.108,0.134-0.184,0.185c-0.113,0.074-0.269,0.129-0.453,0.161
	c-0.183,0.033-0.389,0.042-0.589,0.042c-0.165,0-0.324-0.006-0.472-0.007c-0.239-0.002-0.437,0.181-0.454,0.418
	c-0.017,0.238,0.154,0.447,0.391,0.479c0.06,0.007,0.12,0.013,0.19,0.021c0.121,0.012,0.266,0.028,0.413,0.058
	c0.111,0.022,0.221,0.052,0.319,0.091c0.148,0.058,0.262,0.132,0.329,0.21c0.034,0.04,0.059,0.081,0.078,0.132
	c0.018,0.052,0.031,0.116,0.032,0.203C24.557,80.164,24.555,80.2,24.55,80.238z"/>
<path d="M8.615,72.328c-0.142,0.01-0.332,0.014-0.542,0.014c-0.473,0-1.048-0.019-1.514-0.02c-0.139,0-0.269,0.002-0.385,0.007l0,0
	c-0.068,0.003-0.137,0.004-0.206,0.004c-0.349,0-0.709-0.035-1.082-0.071c-0.374-0.035-0.762-0.074-1.165-0.074
	c-0.09,0-0.181,0.002-0.272,0.007c-0.001,0-0.002,0-0.003,0c-0.005,0-0.01,0-0.015,0c-0.013,0-0.025,0.004-0.039,0.005
	c-0.012,0.002-0.023,0.002-0.035,0.005c-0.003,0-0.005,0.001-0.008,0.002c-0.017,0.004-0.034,0.01-0.05,0.016
	c-0.012,0.004-0.024,0.007-0.035,0.013c-0.014,0.007-0.027,0.016-0.042,0.023c-0.012,0.007-0.024,0.014-0.035,0.021
	C3.177,72.291,3.167,72.3,3.156,72.31c-0.011,0.01-0.022,0.019-0.032,0.03c-0.01,0.01-0.018,0.022-0.027,0.034
	c-0.008,0.011-0.018,0.022-0.025,0.035c-0.008,0.012-0.014,0.026-0.02,0.039c-0.006,0.013-0.014,0.026-0.019,0.039
	c-0.005,0.014-0.008,0.028-0.012,0.041c-0.004,0.015-0.009,0.03-0.012,0.045c-0.002,0.013-0.002,0.026-0.003,0.04
	c-0.001,0.017-0.003,0.033-0.002,0.05c0,0.003-0.001,0.006,0,0.008c0,0.013,0.004,0.024,0.006,0.037
	c0.001,0.013,0.001,0.024,0.004,0.037c0.004,0.016,0.015,0.073,0.028,0.147c0.047,0.264,0.131,0.778,0.207,1.25
	c0.038,0.236,0.073,0.463,0.102,0.645c0.028,0.18,0.049,0.319,0.056,0.368v0c0.084,0.606,0.159,0.981,0.232,1.339
	c0.073,0.358,0.145,0.701,0.233,1.288c0.357,2.36,0.678,3.741,1.09,5.354l0,0c0.078,0.304,0.164,0.672,0.23,0.963
	c0.034,0.146,0.063,0.272,0.083,0.361c0.02,0.09,0.031,0.143,0.031,0.143c0.043,0.199,0.214,0.343,0.417,0.354
	c0.001,0,0.172,0.01,0.388,0.019c0.217,0.009,0.476,0.019,0.666,0.019c0.051,0,0.097-0.001,0.14-0.002l0-0.001
	c0.259-0.011,0.568-0.027,0.856-0.071l0.001,0c0.156-0.025,0.295-0.063,0.418-0.093c0.122-0.029,0.229-0.046,0.288-0.045
	c0.015,0,0.026,0.001,0.035,0.002c0.149,0.018,0.295-0.039,0.394-0.151c0.098-0.113,0.134-0.265,0.097-0.41
	c-0.018-0.071-0.023-0.131-0.023-0.217c0-0.085,0.007-0.197,0.007-0.338c0-0.024,0-0.049,0-0.074v-0.001
	c-0.002-0.078-0.003-0.157-0.003-0.235c0-0.37,0.02-0.753,0.02-1.152c0-0.142-0.003-0.285-0.009-0.43
	c-0.017-0.34-0.023-0.685-0.023-1.033c0-1.435,0.115-2.929,0.116-4.384c0-0.973,0.006-1.573,0.006-2.549
	c0-0.343,0.001-0.599,0.002-0.769c0-0.085,0.002-0.148,0.002-0.19c0-0.042,0-0.063,0-0.063c0.002-0.125-0.049-0.248-0.141-0.335
	C8.867,72.364,8.741,72.319,8.615,72.328z M7.634,84.027L7.634,84.027c-0.222,0.035-0.509,0.051-0.759,0.062h0
	c-0.022,0.002-0.057,0.002-0.1,0.002c-0.16,0-0.416-0.009-0.626-0.018c-0.013-0.001-0.025-0.001-0.037-0.002
	c-0.07-0.309-0.178-0.777-0.275-1.16l0,0c-0.409-1.604-0.719-2.932-1.073-5.266c-0.091-0.606-0.169-0.978-0.242-1.333
	c-0.072-0.356-0.141-0.696-0.223-1.283l0,0c-0.01-0.073-0.036-0.241-0.07-0.464c-0.053-0.334-0.125-0.786-0.189-1.178
	c-0.017-0.103-0.033-0.2-0.048-0.292c0.261,0.012,0.529,0.037,0.806,0.064c0.374,0.036,0.763,0.075,1.17,0.075
	c0.08,0,0.161-0.001,0.243-0.005l0,0c0.098-0.004,0.217-0.005,0.348-0.005c0.442,0,1.019,0.019,1.514,0.019c0.04,0,0.078,0,0.117,0
	c0,0.152-0.001,0.339-0.001,0.564c0,0.972-0.005,1.572-0.006,2.548c0,1.409-0.116,2.902-0.116,4.385c0,0.36,0.007,0.719,0.024,1.077
	C8.098,81.943,8.1,82.072,8.1,82.203c0,0.369-0.02,0.753-0.02,1.152c0,0.086,0.001,0.173,0.003,0.26v-0.001c0,0.018,0,0.035,0,0.052
	c0,0.081-0.005,0.165-0.007,0.261c-0.032,0.007-0.063,0.014-0.093,0.021C7.841,83.983,7.716,84.015,7.634,84.027z"/>
</svg>
